# xmcd
#
# Track frame offsets: 
#        150
#        17638
#        29030
#        50203
#        69578
#        90295
#        107870
#        117320
#        132608
#        148783
#        171510
#        183838
#        199708
#        219440
#
# Disc length: 3092 seconds
#
# Revision: 1
# Processed by: cddbd v1.5.2PL0 Copyright (c) Steve Scherf et al.
# Submitted via: ExactAudioCopyFreeDBPlugin 1.0
#
DISCID=d60c120e
DTITLE=Ultramagnetic MC's - The Four Horsemen
DYEAR=1993
DGENRE=Hip-Hop
TTITLE0=We Are The Horsemen
TTITLE1=Checkin' My Style
TTITLE2=Two Brothers With Checks (San Francisco, Harvey)
TTITLE3=Raise It Up ft. Godfather Don
TTITLE4=Saga Of Dandy, The Devil, and Day
TTITLE5=Delta Force II
TTITLE6=Adventures Of Herman's Lust (Moe Love III)
TTITLE7=See The Man On The Street
TTITLE8=Bring It Down To Earth
TTITLE9=Don't Be Scared
TTITLE10=One Two, One Two
TTITLE11=Time To Catch A Body
TTITLE12=Yo, Black
TTITLE13=Big Booty
EXTD=
EXTT0=
EXTT1=
EXTT2=
EXTT3=
EXTT4=
EXTT5=
EXTT6=
EXTT7=
EXTT8=
EXTT9=
EXTT10=
EXTT11=
EXTT12=
EXTT13=
PLAYORDER=
